<svg width="496" height="342" viewBox="0 0 496 342" fill="none" xmlns="http://www.w3.org/2000/svg">
<g clip-path="url(#clip0_18_625)">
<path d="M824.713 140.882C824.713 140.882 755.88 224.952 571.988 173.749C444.446 138.244 318.299 -35.0501 272.93 69.7122C225.707 178.698 137.87 291.02 -82.6246 214.513" stroke="#28A8E0" stroke-miterlimit="10"/>
<path d="M823.137 139.154C822.544 139.034 750.089 219.417 568.648 172.204C442.749 139.451 316.774 -28.7863 269.89 71.8889C221.217 176.715 134.839 285.162 -82.4644 210.346" stroke="#28A8E0" stroke-miterlimit="10"/>
<path d="M821.534 137.425C820.347 137.185 744.232 213.87 565.282 170.658C441.011 140.646 315.213 -22.5152 266.838 74.0742C216.689 174.739 131.81 279.322 -82.3167 206.186" stroke="#28A8E0" stroke-miterlimit="10"/>
<path d="M819.943 135.688C818.151 135.336 738.387 208.314 561.953 169.104C439.299 141.843 313.686 -16.2704 263.81 76.2419C212.196 172.737 128.779 273.463 -82.1451 202.008" stroke="#28A8E0" stroke-miterlimit="10"/>
<path d="M818.339 133.958C815.954 133.486 732.518 202.775 558.585 167.557C437.523 143.045 312.124 -10.0001 260.757 78.4264C207.694 170.762 125.735 267.612 -81.9976 197.848" stroke="#28A8E0" stroke-miterlimit="10"/>
<path d="M816.747 132.22C813.783 131.638 726.62 197.216 555.242 165.993C435.77 144.23 310.31 -3.87712 257.714 80.5836C202.886 168.617 122.701 261.733 -81.8405 193.66" stroke="#28A8E0" stroke-miterlimit="10"/>
<path d="M815.144 130.491C811.586 129.789 720.686 191.665 551.875 164.447C433.969 145.431 308.703 2.34357 254.636 82.7673C198.29 166.609 119.635 255.901 -81.7324 189.488" stroke="#28A8E0" stroke-miterlimit="10"/>
<path d="M813.566 128.763C809.415 127.94 714.753 186.131 548.56 162.902C432.181 146.641 307.135 8.57476 251.635 84.9543C193.782 164.595 116.643 250.052 -81.5332 185.33" stroke="#28A8E0" stroke-miterlimit="10"/>
<path d="M811.963 127.034C807.207 126.1 708.784 180.606 545.193 161.356C430.343 147.849 305.516 14.804 248.569 87.129C189.184 162.568 113.586 244.192 -81.3991 181.16" stroke="#28A8E0" stroke-miterlimit="10"/>
<path d="M810.371 125.296C805.021 124.242 702.775 175.069 541.837 159.801C428.49 149.047 303.92 21.0152 245.529 89.3048C184.636 160.543 110.557 238.352 -81.2399 176.991" stroke="#28A8E0" stroke-miterlimit="10"/>
<path d="M808.768 123.567C802.825 122.393 696.757 169.56 538.497 158.256C426.64 150.263 302.324 27.2264 242.489 91.4808C180.086 158.499 107.526 232.493 -81.0684 172.813" stroke="#28A8E0" stroke-miterlimit="10"/>
<path d="M807.176 121.829C800.64 120.535 690.714 164.05 535.142 156.7C424.753 151.488 300.74 33.4286 239.448 93.6567C175.525 156.464 104.495 226.634 -80.9087 168.645" stroke="#28A8E0" stroke-miterlimit="10"/>
<path d="M805.587 120.11C798.457 118.695 684.649 158.576 531.801 155.154C422.853 152.72 299.158 39.6491 236.408 95.8318C170.975 154.419 101.452 220.783 -80.7496 164.475" stroke="#28A8E0" stroke-miterlimit="10"/>
<path d="M803.995 118.372C796.275 116.856 678.574 153.111 528.446 153.599C420.943 153.961 297.585 45.842 233.368 98.0073C166.439 152.385 98.4351 214.934 -80.6041 160.296" stroke="#28A8E0" stroke-miterlimit="10"/>
<path d="M802.391 116.643C794.078 115.007 672.476 147.665 525.094 152.063C419.009 155.221 296.003 52.0632 230.316 100.192C161.89 150.341 95.3924 209.084 -80.456 156.136" stroke="#28A8E0" stroke-miterlimit="10"/>
<path d="M800.8 114.905C791.892 113.149 666.355 142.236 521.75 150.499C417.076 156.48 294.442 58.2473 227.287 102.359C157.389 148.281 92.3612 203.225 -80.2849 151.959" stroke="#28A8E0" stroke-miterlimit="10"/>
<path d="M799.196 113.176C789.696 111.299 660.225 136.835 518.384 148.952C415.108 157.766 292.869 64.4397 224.222 104.532C152.839 146.237 89.3189 197.375 -80.1508 147.789" stroke="#28A8E0" stroke-miterlimit="10"/>
<path d="M797.618 111.448C787.513 109.46 654.101 131.472 515.055 147.397C413.18 159.063 291.333 70.6248 221.207 106.709C148.353 144.187 86.3132 191.518 -79.9657 143.621" stroke="#28A8E0" stroke-miterlimit="10"/>
<path d="M796.015 109.719C785.317 107.61 647.954 126.127 511.702 145.861C411.206 160.396 289.801 76.8289 218.155 108.893C143.855 142.145 83.2592 185.676 -79.8175 139.461" stroke="#28A8E0" stroke-miterlimit="10"/>
<path d="M794.424 107.981C783.132 105.752 641.824 120.812 508.359 144.297C409.273 161.74 288.28 83.0242 215.127 111.06C139.38 140.086 80.2401 179.809 -79.6604 135.274" stroke="#28A8E0" stroke-miterlimit="10"/>
<path d="M792.82 106.251C780.934 103.902 635.685 115.525 504.993 142.749C407.29 163.101 286.747 89.2276 212.061 113.233C134.893 138.036 77.197 173.959 -79.5271 131.103" stroke="#28A8E0" stroke-miterlimit="10"/>
<path d="M791.228 104.513C778.763 102.054 629.575 110.258 501.652 141.204C405.35 164.492 285.266 95.4344 209.035 115.418C130.436 136.006 74.1689 168.119 -79.3531 126.945" stroke="#28A8E0" stroke-miterlimit="10"/>
<path d="M789.624 102.783C776.555 100.213 623.459 105.039 498.297 139.648C403.399 165.892 283.773 101.65 205.981 117.583C125.99 133.968 71.1237 162.25 -79.1964 122.757" stroke="#28A8E0" stroke-miterlimit="10"/>
<path d="M788.047 101.056C774.384 98.3654 617.372 99.8408 494.957 138.103C401.476 167.314 282.309 107.886 202.941 119.758C121.547 131.949 68.1073 156.402 -79.0366 118.588" stroke="#28A8E0" stroke-miterlimit="10"/>
<path d="M786.444 99.3261C772.188 96.5158 611.303 94.6719 491.602 136.547C399.557 168.754 280.843 114.103 199.902 121.933C117.13 129.932 65.0653 150.552 -78.8767 114.42" stroke="#28A8E0" stroke-miterlimit="10"/>
<path d="M784.851 97.5879C770.003 94.6574 605.247 89.5136 488.262 135.002C397.68 170.225 279.381 120.358 196.862 124.107C112.715 127.933 62.0342 144.693 -78.7174 110.251" stroke="#28A8E0" stroke-miterlimit="10"/>
<path d="M783.248 95.8582C767.806 92.8074 599.22 84.3755 484.896 133.454C395.78 171.714 277.92 126.612 193.811 126.291C108.292 125.963 58.9921 138.843 -78.5834 106.081" stroke="#28A8E0" stroke-miterlimit="10"/>
<path d="M781.656 94.12C765.609 90.9578 593.222 79.2586 481.552 131.89C393.929 173.186 276.459 132.867 190.768 128.446C103.878 123.964 55.9612 132.985 -78.4269 101.893" stroke="#28A8E0" stroke-miterlimit="10"/>
<path d="M780.067 92.4011C763.427 89.1188 587.255 74.1818 478.201 130.353C392.087 174.717 275.004 139.16 187.731 130.64C99.4718 122.024 52.9334 127.146 -78.2644 97.7439" stroke="#28A8E0" stroke-miterlimit="10"/>
<path d="M778.475 90.6629C761.256 87.2707 581.3 69.096 474.872 128.799C390.293 176.231 273.56 145.444 184.703 132.805C95.0635 120.064 49.9147 121.279 -78.093 93.5667" stroke="#28A8E0" stroke-miterlimit="10"/>
<path d="M776.871 88.9329C759.059 85.4205 575.374 64.0304 471.506 127.251C388.491 177.772 272.067 151.744 181.652 134.988C90.6317 118.121 46.8751 115.448 -77.9452 89.4065" stroke="#28A8E0" stroke-miterlimit="10"/>
<path d="M775.28 87.1947C756.874 83.5621 569.499 58.9685 468.152 125.696C386.726 179.306 270.6 158.045 178.598 137.152C86.1748 116.177 43.8307 109.579 -77.7995 85.2278" stroke="#28A8E0" stroke-miterlimit="10"/>
<path d="M773.676 85.4654C754.666 81.7214 563.639 53.9171 464.797 124.14C384.975 180.851 269.107 164.345 175.547 139.335C81.7202 114.253 40.7886 103.73 -77.6658 81.0581" stroke="#28A8E0" stroke-miterlimit="10"/>
<path d="M772.099 83.7373C752.495 79.8731 557.819 48.8772 461.472 122.605C383.293 182.428 267.632 170.674 172.522 141.52C77.2918 112.329 37.7612 97.8911 -77.4918 76.8999" stroke="#28A8E0" stroke-miterlimit="10"/>
<path d="M770.495 82.007C750.299 78.0227 552.013 43.8472 458.117 121.048C381.594 183.975 266.113 176.971 169.483 143.693C72.8232 110.394 34.7451 92.0427 -77.3322 72.731" stroke="#28A8E0" stroke-miterlimit="10"/>
<path d="M768.903 80.2688C748.113 76.1643 546.241 38.7915 454.763 119.492C379.909 185.533 264.583 183.278 166.429 145.857C68.3288 108.457 31.7004 86.1744 -77.1754 68.5435" stroke="#28A8E0" stroke-miterlimit="10"/>
<path d="M767.3 78.5393C745.917 74.3146 540.473 33.7549 451.423 117.946C378.277 187.094 263.068 189.595 163.404 148.041C63.8749 106.532 28.6732 80.3355 -77.0012 64.3855" stroke="#28A8E0" stroke-miterlimit="10"/>
<path d="M765.708 76.8009C743.735 72.4751 534.742 28.7109 448.069 116.39C376.643 188.655 261.538 195.901 160.35 150.204C59.3548 104.594 25.6429 74.4775 -76.856 60.2068" stroke="#28A8E0" stroke-miterlimit="10"/>
<path d="M764.104 75.071C741.538 70.625 529.023 23.6579 444.703 114.843C375.01 190.215 259.97 202.215 157.3 152.386C54.8492 102.666 22.6012 68.6282 -76.7079 56.0471" stroke="#28A8E0" stroke-miterlimit="10"/>
<path d="M762.526 73.3426C739.367 68.7765 523.344 18.6168 441.375 113.288C373.429 191.778 258.452 208.512 154.272 154.551C50.3666 100.72 19.571 62.77 -76.5511 51.8594" stroke="#28A8E0" stroke-miterlimit="10"/>
<path d="M760.923 71.6124C737.17 66.9262 517.662 13.5563 438.023 111.751C371.847 193.341 256.884 214.824 151.235 156.743C45.8494 98.8011 16.5579 56.9413 -76.3889 47.71" stroke="#28A8E0" stroke-miterlimit="10"/>
<path d="M759.331 69.8745C734.985 65.068 512.017 8.48947 434.681 110.186C370.275 194.877 255.34 221.12 148.194 158.898C41.3272 96.8442 13.5255 51.0648 -76.2317 43.5229" stroke="#28A8E0" stroke-miterlimit="10"/>
<path d="M757.728 68.1448C732.778 63.227 506.347 3.4207 431.316 108.639C368.705 196.432 253.745 227.412 145.129 161.07C36.7793 94.8853 10.4585 45.2144 -76.0976 39.3533" stroke="#28A8E0" stroke-miterlimit="10"/>
<path d="M756.135 66.4057C730.592 61.3677 500.725 -1.6648 427.961 107.082C367.158 197.968 252.174 233.705 142.09 163.242C32.2593 92.9466 7.42815 39.3562 -75.9384 35.1846" stroke="#28A8E0" stroke-miterlimit="10"/>
<path d="M754.546 64.6865C728.41 59.5283 495.107 -6.73036 424.636 105.547C365.651 199.516 250.619 240.009 139.065 165.426C27.7401 91.0084 4.42714 33.5193 -75.7642 31.0269" stroke="#28A8E0" stroke-miterlimit="10"/>
<path d="M752.954 62.9474C726.239 57.6794 489.497 -11.8245 421.282 103.99C364.116 201.044 249.06 246.293 136.026 167.599C23.2177 89.0505 1.38572 27.6701 -75.619 26.8479" stroke="#28A8E0" stroke-miterlimit="10"/>
<path d="M751.351 61.2178C724.043 55.8297 483.9 -16.927 417.928 102.434C362.592 202.562 247.292 252.717 132.973 169.761C18.4859 87.2331 -1.65812 21.8022 -75.4734 22.6694" stroke="#28A8E0" stroke-miterlimit="10"/>
<path d="M749.76 59.4822C721.847 53.9827 478.3 -22.0271 414.586 100.891C361.08 204.096 245.738 258.978 129.943 171.949C13.9923 85.2524 -4.66547 15.9681 -75.2949 18.5056" stroke="#28A8E0" stroke-miterlimit="10"/>
<path d="M748.156 57.757C719.65 52.1372 472.709 -27.1352 411.227 99.3404C359.561 205.613 244.192 265.233 126.881 174.118C9.46459 83.2527 -7.73287 10.1129 -75.1626 14.331" stroke="#28A8E0" stroke-miterlimit="10"/>
<path d="M746.579 56.034C717.48 50.294 467.13 -32.2516 407.883 97.8003C358.069 207.131 242.661 271.499 123.847 176.308C4.96594 81.2743 -10.7597 4.27025 -75.0011 10.1778" stroke="#28A8E0" stroke-miterlimit="10"/>
<path d="M744.976 54.3089C715.283 48.4487 461.861 -37.2647 404.513 96.2584C356.809 208.749 241.078 277.762 120.773 178.486C0.4297 79.3028 -13.8268 -1.58479 -74.8799 6.01226" stroke="#28A8E0" stroke-miterlimit="10"/>
<path d="M743.386 52.5718C713.087 46.6002 455.981 -42.5154 401.18 94.7072C355.072 210.157 239.56 284.018 117.751 180.666C-4.05726 77.3149 -16.8396 -7.41795 -74.7071 1.84968" stroke="#28A8E0" stroke-miterlimit="10"/>
</g>
<defs>
<clipPath id="clip0_18_625">
<rect width="487.922" height="330.793" fill="white" transform="translate(0.313995 11.1809) rotate(-1.20142)"/>
</clipPath>
</defs>
</svg>
