<svg width="636" height="468" viewBox="0 0 636 468" fill="none" xmlns="http://www.w3.org/2000/svg">
<g clip-path="url(#clip0_17_345)">
<path d="M572.273 433.017H530.142V433.335H572.273V433.017Z" fill="#EBEBEB"/>
<path d="M421.306 436.439H410.248V436.757H421.306V436.439Z" fill="#EBEBEB"/>
<path d="M528.858 421.312H504.45V421.631H528.858V421.312Z" fill="#EBEBEB"/>
<path d="M121.665 423.43H66.7272V423.748H121.665V423.43Z" fill="#EBEBEB"/>
<path d="M141.048 423.43H132.989V423.748H141.048V423.43Z" fill="#EBEBEB"/>
<path d="M286.38 428.75H167.227V429.068H286.38V428.75Z" fill="#EBEBEB"/>
<path d="M303.239 356.518H57.6169C53.6098 356.518 50.3553 353.293 50.3553 349.322V7.19573C50.3553 3.22492 53.6098 0 57.6169 0H303.239C307.246 0 310.5 3.22492 310.5 7.19573V349.322C310.5 353.293 307.246 356.518 303.239 356.518ZM57.6169 0.318105C53.7869 0.318105 50.6763 3.40042 50.6763 7.19573V349.322C50.6763 353.118 53.7869 356.2 57.6169 356.2H303.239C307.069 356.2 310.179 353.118 310.179 349.322V7.19573C310.179 3.40042 307.069 0.318105 303.239 0.318105H57.6169Z" fill="#EBEBEB"/>
<path d="M578.372 356.847H332.75C328.743 356.847 325.489 353.622 325.489 349.651V7.52483C325.489 3.55402 328.743 0.329102 332.75 0.329102H578.372C582.379 0.329102 585.634 3.55402 585.634 7.52483V349.651C585.634 353.611 582.379 356.847 578.372 356.847ZM332.75 0.636235C328.92 0.636235 325.81 3.71855 325.81 7.51386V349.64C325.81 353.436 328.92 356.518 332.75 356.518H578.372C582.202 356.518 585.313 353.436 585.313 349.64V7.51386C585.313 3.71855 582.202 0.636235 578.372 0.636235H332.75Z" fill="#EBEBEB"/>
<path d="M636 411.32H0V411.638H636V411.32Z" fill="#EBEBEB"/>
<path d="M335.241 88.9596H383.216C383.216 88.9596 394.463 84.7584 393.013 73.6357C391.563 62.513 374.571 71.7819 374.571 71.7819C374.571 71.7819 379.718 56.2716 363.269 60.6702C346.82 65.0688 345.214 80.4585 345.214 80.4585C345.214 80.4585 323.618 76.729 335.241 88.9596Z" fill="#F5F6F6"/>
<path d="M99.3933 126.222C105.614 127.768 112.588 122.624 112.887 116.273C112.976 114.408 112.566 112.521 112.81 110.667C113.573 104.744 122.174 101.651 126.602 105.698C127.266 96.1334 134.749 87.413 144.17 85.2082C147.513 84.4294 151.21 84.4513 154.199 86.1406C157.187 87.8298 159.18 91.4716 158.195 94.7294C159.8 88.8828 165.058 84.1113 171.124 83.2996C177.19 82.4878 183.666 85.8663 186.19 91.3838C188.713 96.9122 186.887 104.119 181.872 107.596C185.337 103.878 192.643 103.669 194.359 106.664C195.034 107.837 195.455 109.132 195.422 110.481C195.256 117.841 189.765 122.799 183.002 125.838C176.216 128.887 104.972 129.129 99.3933 126.222Z" fill="#F5F6F6"/>
<path d="M475.049 121.965C475.038 122.174 475.027 122.371 475.016 122.58C474.252 122.689 476.134 124.839 476.555 124.192C476.975 123.545 476.4 122.733 475.813 122.218C470.953 117.907 463.67 116.492 457.537 118.675C451.405 120.858 446.678 126.54 445.693 132.924C441.32 127.746 433.029 127.647 426.863 130.532C417.687 134.821 411.621 144.935 412.218 154.971C407.16 152.514 400.44 154.127 397.075 158.613C395.581 160.61 394.729 163.023 393.267 165.03C390.998 168.156 387.234 170.164 383.349 170.306C398.16 173.312 457.714 171.864 472.381 172.149C478.791 172.27 485.277 172.829 491.565 171.59C497.852 170.35 504.096 166.972 506.907 161.257C509.719 155.553 507.782 147.447 501.882 144.979C505.612 138.386 504.04 129.293 498.295 124.313C492.55 119.333 481.159 117.435 475.049 121.965Z" fill="#F5F6F6"/>
<path d="M391.496 412.779C391.496 412.779 312.305 208.38 215.646 208.38C107.286 208.38 66.8268 411.221 66.8268 411.221L391.496 412.779Z" fill="#EBEBEB"/>
<path d="M54.5064 412.131C54.5064 412.131 290.376 230.834 441.652 206.12C567.28 185.597 589.464 412.669 589.464 412.669L54.5064 412.131Z" fill="#F1F1F1"/>
<path d="M225.52 413.568C225.52 413.568 127.765 383.743 112.71 383.085C97.6554 382.427 46.5474 411.605 46.5474 411.605L225.52 413.568Z" fill="#F5F6F6"/>
<path d="M360.081 272.549C357.347 272.056 352.1 277.069 349.532 276.027C347.55 275.226 347.185 269.939 345.624 268.491C343.488 266.506 335.772 266.637 334.898 263.873C333.082 258.169 341.639 244.929 347.484 243.481C351.679 242.439 358.343 250.688 362.394 252.18C366.158 253.562 375.534 252.026 378.191 255.01C381.268 258.454 380.681 269.533 378.191 273.416C376.586 275.917 370.298 279.032 367.365 278.44C365.073 277.979 362.405 272.966 360.081 272.549Z" fill="#EBEBEB"/>
<path d="M349.687 265.178C348.613 264.037 345.015 261.383 345.015 261.383L345.148 260.966L350.251 264.388L352.321 258.333L352.664 258.619C352.664 258.619 351.004 263.105 351.258 264.685C351.812 268.107 359.029 275.72 359.029 275.72C359.029 275.72 364.199 269.862 365.162 267.493C365.959 265.529 366.258 259.101 366.258 259.101L366.601 259.156L366.158 266.67L373.785 260.451L373.918 260.867C373.918 260.867 367.741 265.727 366.069 267.712C364.774 269.248 362.35 273.548 361.132 275.763C360.645 276.652 360.402 277.65 360.435 278.67L361.055 299.961H357.468L358.066 279.482C358.11 278.155 357.435 276.838 356.749 275.687C355.022 272.802 351.591 267.197 349.687 265.178Z" fill="#E1E1E1"/>
<path d="M256.492 359.666C253.227 359.074 246.972 365.063 243.906 363.823C241.548 362.869 241.106 356.551 239.246 354.828C236.7 352.459 227.49 352.613 226.438 349.322C224.269 342.521 234.486 326.715 241.46 324.982C246.474 323.742 254.422 333.592 259.26 335.369C263.754 337.026 274.934 335.194 278.122 338.748C281.797 342.861 281.1 356.079 278.122 360.719C276.207 363.702 268.702 367.421 265.204 366.719C262.448 366.149 259.26 360.17 256.492 359.666Z" fill="#EBEBEB"/>
<path d="M244.083 350.869C242.799 349.509 238.515 346.339 238.515 346.339L238.67 345.834L244.77 349.914L247.249 342.686L247.659 343.015C247.659 343.015 245.677 348.368 245.987 350.254C246.651 354.335 255.263 363.428 255.263 363.428C255.263 363.428 261.429 356.441 262.58 353.611C263.532 351.275 263.898 343.607 263.898 343.607L264.307 343.673L263.776 352.646L272.886 345.231L273.041 345.735C273.041 345.735 265.669 351.527 263.676 353.907C262.138 355.739 259.237 360.862 257.776 363.516C257.19 364.58 256.902 365.776 256.946 366.982L257.677 392.398H253.393L254.101 367.959C254.145 366.368 253.348 364.8 252.529 363.428C250.459 359.973 246.352 353.271 244.083 350.869Z" fill="#E1E1E1"/>
<path d="M131.274 280.305C134.008 279.811 139.255 284.824 141.823 283.782C143.804 282.981 144.17 277.694 145.73 276.246C147.867 274.261 155.582 274.392 156.457 271.628C158.272 265.924 149.715 252.684 143.871 251.236C139.675 250.194 133.012 258.443 128.96 259.935C125.196 261.317 115.821 259.781 113.164 262.765C110.086 266.209 110.673 277.288 113.164 281.171C114.769 283.672 121.056 286.787 123.99 286.195C126.281 285.734 128.96 280.721 131.274 280.305Z" fill="#F5F6F6"/>
<path d="M126.082 272.923C125.008 271.782 121.411 269.127 121.411 269.127L121.543 268.71L126.647 272.133L128.717 266.078L129.06 266.363C129.06 266.363 127.399 270.849 127.654 272.429C128.207 275.851 135.425 283.464 135.425 283.464C135.425 283.464 140.594 277.606 141.557 275.237C142.354 273.274 142.653 266.846 142.653 266.846L142.996 266.901L142.553 274.414L150.18 268.195L150.313 268.612C150.313 268.612 144.136 273.471 142.465 275.456C141.17 276.992 138.746 281.292 137.528 283.508C137.041 284.396 136.797 285.394 136.831 286.415L137.45 307.706H133.864L134.462 287.226C134.506 285.899 133.831 284.583 133.144 283.431C131.418 280.557 127.986 274.941 126.082 272.923Z" fill="#E1E1E1"/>
<path d="M406.861 223.419C406.861 223.419 394.197 221.96 392.902 218.527C391.85 215.74 398.06 211.035 398.78 208.15C399.333 205.912 397.839 201.152 398.525 198.958C399.134 197.016 402.909 194.362 403.374 192.376C403.595 191.433 402.455 189.513 402.688 188.581C403.219 186.453 405.953 181.319 408.134 181.659C411.576 182.208 413.049 191.104 413.17 194.57C413.215 195.875 411.488 198.256 411.621 199.55C411.853 201.865 416.214 205.408 416.137 207.733C416.104 208.709 414.034 210.047 414.012 211.024C413.956 212.79 417.963 215.477 417.499 217.177C416.702 220.139 406.861 223.419 406.861 223.419Z" fill="#E7E7E6"/>
<path d="M407.37 204.366L407.005 190.314L406.495 190.347L405.898 213.24C405.898 213.24 401.603 214.545 400.119 214.731C399.333 214.83 396.965 214.731 396.965 214.731V215.017C396.965 215.017 399.455 215.192 400.285 215.126C400.695 215.093 401.902 214.819 401.902 214.819L400.341 216.311L400.518 216.508L402.544 214.72L405.876 213.909L405.322 235.123H408.156L407.37 204.782V204.366Z" fill="#E1E1E1"/>
<path d="M516.15 286.535C516.15 286.535 503.487 285.076 502.192 281.643C501.14 278.857 507.35 274.151 508.07 271.266C508.623 269.028 507.129 264.268 507.815 262.074C508.424 260.132 512.198 257.478 512.663 255.492C512.885 254.549 511.745 252.63 511.977 251.697C512.508 249.569 515.243 244.436 517.423 244.776C520.866 245.324 522.338 254.22 522.46 257.686C522.504 258.992 520.777 261.372 520.91 262.666C521.143 264.981 525.504 268.524 525.427 270.849C525.393 271.825 523.323 273.164 523.301 274.14C523.246 275.906 527.253 278.593 526.788 280.294C525.991 283.255 516.15 286.535 516.15 286.535Z" fill="#E7E7E6"/>
<path d="M516.648 267.482L516.283 253.43L515.774 253.463L515.176 276.356C515.176 276.356 510.881 277.661 509.398 277.848C508.612 277.946 506.243 277.848 506.243 277.848V278.133C506.243 278.133 508.734 278.308 509.564 278.243C509.973 278.21 511.18 277.935 511.18 277.935L509.619 279.427L509.796 279.625L511.822 277.837L515.154 277.025L514.601 298.239H517.434L516.648 267.899V267.482Z" fill="#E1E1E1"/>
<path d="M210.62 288.981C210.62 288.981 200.193 287.873 199.119 285.274C198.244 283.168 203.369 279.592 203.956 277.409C204.41 275.72 203.181 272.1 203.746 270.433C204.244 268.963 207.366 266.944 207.742 265.442C207.919 264.729 206.989 263.27 207.177 262.568C207.62 260.955 209.867 257.061 211.672 257.324C214.517 257.741 215.723 264.487 215.823 267.109C215.856 268.096 214.439 269.906 214.55 270.882C214.749 272.637 218.335 275.325 218.269 277.091C218.236 277.826 216.542 278.846 216.52 279.581C216.476 280.919 219.775 282.959 219.398 284.254C218.734 286.491 210.62 288.981 210.62 288.981Z" fill="#F5F6F6"/>
<path d="M211.041 274.535L210.742 263.884L210.321 263.906L209.834 281.259C209.834 281.259 206.292 282.246 205.074 282.389C204.432 282.466 202.484 282.389 202.484 282.389V282.597C202.484 282.597 204.532 282.729 205.218 282.685C205.561 282.663 206.546 282.455 206.546 282.455L205.262 283.585L205.406 283.738L207.067 282.378L209.812 281.764L209.358 297.844H211.694L211.052 274.842L211.041 274.535Z" fill="#E1E1E1"/>
<path d="M201.477 210.267C201.477 210.267 191.049 209.159 189.975 206.559C189.101 204.453 194.226 200.877 194.813 198.694C195.267 197.005 194.038 193.385 194.602 191.718C195.101 190.248 198.222 188.23 198.599 186.727C198.776 186.014 197.846 184.555 198.034 183.853C198.477 182.241 200.724 178.347 202.528 178.61C205.373 179.027 206.58 185.773 206.679 188.394C206.712 189.382 205.296 191.191 205.406 192.168C205.606 193.923 209.192 196.61 209.126 198.376C209.092 199.111 207.399 200.131 207.377 200.866C207.332 202.204 210.631 204.245 210.255 205.539C209.58 207.777 201.477 210.267 201.477 210.267Z" fill="#EBEBEB"/>
<path d="M201.886 195.821L201.587 185.17L201.167 185.192L200.68 202.545C200.68 202.545 197.137 203.532 195.92 203.675C195.278 203.751 193.329 203.675 193.329 203.675V203.883C193.329 203.883 195.388 204.015 196.064 203.971C196.407 203.949 197.392 203.74 197.392 203.74L196.108 204.87L196.252 205.024L197.912 203.664L200.657 203.049L200.204 219.13H202.539L201.897 196.128L201.886 195.821Z" fill="#E1E1E1"/>
<path d="M255.95 253.299C255.95 253.299 243.286 251.84 241.991 248.406C240.939 245.62 247.15 240.915 247.869 238.03C248.423 235.792 246.928 231.031 247.614 228.838C248.223 226.896 251.998 224.242 252.463 222.256C252.684 221.313 251.544 219.393 251.777 218.461C252.308 216.333 255.042 211.199 257.223 211.539C260.665 212.088 262.138 220.984 262.259 224.45C262.304 225.755 260.577 228.136 260.71 229.43C260.942 231.744 265.304 235.287 265.226 237.613C265.193 238.589 263.123 239.927 263.101 240.904C263.045 242.67 267.053 245.357 266.588 247.057C265.791 250.008 255.95 253.299 255.95 253.299Z" fill="#F5F6F6"/>
<path d="M256.448 234.246L256.083 220.194L255.573 220.227L254.976 243.12C254.976 243.12 250.681 244.425 249.197 244.611C248.411 244.71 246.043 244.611 246.043 244.611V244.897C246.043 244.897 248.533 245.072 249.363 245.006C249.773 244.973 250.98 244.699 250.98 244.699L249.419 246.191L249.596 246.388L251.622 244.6L254.954 243.789L254.4 265.003H257.234L256.448 234.662V234.246Z" fill="#E1E1E1"/>
<path d="M161.051 418.274L142.841 435.408C142.155 435.122 137.185 429.44 137.185 429.44L153.003 413.217L161.051 418.274Z" fill="#F6968E"/>
<path d="M144.114 437.02C144.059 436.932 144.059 436.834 144.114 436.746C144.17 436.669 144.269 436.636 144.358 436.658C144.513 436.702 148.221 437.744 149.084 439.214C149.262 439.488 149.328 439.806 149.262 440.124C149.228 440.497 148.963 440.782 148.608 440.848C147.978 440.98 147.003 440.245 146.107 439.345C145.376 438.632 144.701 437.854 144.114 437.02ZM148.442 439.104C147.38 438.281 146.184 437.667 144.911 437.316C146.029 438.775 147.8 440.519 148.542 440.399C148.642 440.377 148.763 440.322 148.841 439.993C148.874 439.806 148.841 439.609 148.741 439.444C148.653 439.313 148.564 439.192 148.453 439.093L148.442 439.104Z" fill="#4375BA"/>
<path d="M144.092 436.855C144.081 436.768 144.125 436.691 144.203 436.658C144.291 436.592 146.184 434.914 147.756 435.078C148.199 435.144 148.608 435.386 148.896 435.759C149.306 436.252 149.206 436.614 149.084 436.834C148.498 437.744 145.454 437.579 144.258 437.119C144.236 437.108 144.17 437.064 144.17 437.064L144.092 436.855ZM147.712 435.561C146.638 435.638 145.631 436.066 144.823 436.768C146.162 437.108 148.431 437.086 148.73 436.515C148.752 436.461 148.841 436.329 148.586 436.011L148.465 435.934C148.265 435.726 148 435.594 147.712 435.561Z" fill="#4375BA"/>
<path d="M144.225 434.673L138.502 428.387C138.225 428.091 137.794 428.025 137.473 428.234L130.798 432.084C130.156 432.523 130.554 434.256 130.609 434.321C134.13 439.005 141.701 447.682 144.535 450.687C147.369 453.693 150.49 451.302 149.583 449.821C145.498 443.185 145.088 439.554 144.889 436.318C144.878 435.715 144.646 435.122 144.225 434.673Z" fill="#192E35"/>
<g opacity="0.2">
<path d="M146.527 419.689L152.992 413.217L161.051 418.274L152.981 425.722L146.527 419.689Z" fill="black"/>
</g>
<path d="M153.723 330.993C153.557 333.274 153.534 333.998 153.767 336.291C154.73 345.637 177.6 385.915 175.674 387.166C168.257 391.992 160.298 400.46 150.313 415.806C152.992 418.954 155.283 421.049 157.995 424.866C157.995 424.866 186.887 402.95 193.75 393.604C197.979 387.846 182.426 323.643 177.732 319.563C175.109 317.292 154.951 313.782 153.723 330.993Z" fill="#192E35"/>
<g opacity="0.2">
<path d="M153.723 330.993C153.557 333.274 153.534 333.998 153.767 336.291C154.73 345.637 177.6 385.915 175.674 387.166C168.257 391.992 160.298 400.46 150.313 415.806C152.992 418.954 155.283 421.049 157.995 424.866C157.995 424.866 186.887 402.95 193.75 393.604C197.979 387.846 182.426 323.643 177.732 319.563C175.109 317.292 154.951 313.782 153.723 330.993Z" fill="black"/>
</g>
<path d="M162.047 422.661C162.102 422.727 157.187 426.501 157.187 426.501L147.413 415.422L151.409 411.33L162.047 422.661Z" fill="#192E35"/>
<path opacity="0.6" d="M162.047 422.661C162.102 422.727 157.187 426.501 157.187 426.501L147.413 415.422L151.409 411.33L162.047 422.661Z" fill="white"/>
<path d="M182.968 314.243L185.891 315.46L164.77 350.265C164.77 350.265 153.379 354.741 147.989 343.081C138.292 322.108 153.855 302.583 153.855 302.583C153.855 302.583 172.342 309.417 182.968 314.243Z" fill="#192E35"/>
<path d="M96.2717 421.29L74.9739 434.475C74.3651 434.058 70.6347 427.51 70.6347 427.51L89.3975 414.741L96.2717 421.29Z" fill="#F6968E"/>
<path d="M75.9038 436.307C75.8706 436.219 75.8927 436.109 75.9591 436.044C76.0256 435.978 76.1252 435.967 76.2138 436.011C76.3577 436.087 79.7781 437.843 80.3316 439.455C80.4534 439.751 80.4423 440.091 80.3205 440.376C80.2098 440.727 79.8888 440.969 79.5346 440.958C78.8815 440.969 78.0734 440.047 77.3871 438.994C76.8115 438.139 76.3134 437.239 75.9038 436.307ZM79.7228 439.214C78.8483 438.194 77.7967 437.36 76.6233 436.757C77.4314 438.402 78.8151 440.475 79.5678 440.497C79.6674 440.486 79.8003 440.464 79.9442 440.157C80.0217 439.982 80.0217 439.784 79.9552 439.598C79.8888 439.466 79.8114 439.323 79.7228 439.214Z" fill="#4375BA"/>
<path d="M75.9149 436.142C75.9259 436.054 75.9813 435.989 76.0588 435.967C76.1584 435.923 78.3502 434.65 79.8556 435.122C80.2762 435.276 80.6305 435.594 80.8297 436.021C81.1286 436.592 80.9626 436.91 80.7965 437.118C80.0327 437.897 77.0882 437.129 76.0145 436.438C75.9923 436.416 75.937 436.372 75.937 436.372L75.9149 436.142ZM79.7228 435.594C78.649 435.451 77.5753 435.67 76.6454 436.208C77.8852 436.8 80.1213 437.239 80.5308 436.734C80.5641 436.691 80.6748 436.581 80.4866 436.208L80.3759 436.109C80.232 435.868 79.9884 435.681 79.7228 435.594Z" fill="#4375BA"/>
<path d="M76.4905 434.025L72.1512 426.731C71.9409 426.391 71.5313 426.237 71.1771 426.38L63.8602 428.837C63.1406 429.133 63.1738 430.921 63.2292 430.987C65.742 436.274 71.3985 446.267 73.5792 449.777C75.7488 453.287 79.2911 451.565 78.7044 449.93C76.0477 442.625 76.3687 438.972 76.8336 435.769C76.9222 435.177 76.8004 434.552 76.4905 434.025Z" fill="#192E35"/>
<g opacity="0.2">
<path d="M81.7596 419.809L89.3975 414.741L96.2717 421.29L86.8737 426.994L81.7596 419.809Z" fill="black"/>
</g>
<path d="M148.276 324.433C147.236 326.473 146.926 327.132 146.251 329.336C143.494 338.32 119.761 385.882 117.702 386.935C106.312 392.738 85.3018 416.025 85.3018 416.025C86.5416 419.952 91.6557 426.051 91.6557 426.051C91.6557 426.051 120.713 407.02 130.288 400.427C146.804 389.052 179.448 330.598 176.714 325.036C175.175 321.91 156.136 309.033 148.276 324.433Z" fill="#192E35"/>
<path d="M96.2717 424.932C96.316 425.009 91.0358 428.256 91.0358 428.256L82.468 416.234L86.8737 412.581L96.2717 424.932Z" fill="#192E35"/>
<path opacity="0.6" d="M96.2717 424.932C96.316 425.009 91.0358 428.256 91.0358 428.256L82.468 416.234L86.8737 412.581L96.2717 424.932Z" fill="white"/>
<path d="M254.179 272.253C254.278 271.178 257.843 266.187 258.595 266.461C259.337 266.736 261.141 269.741 261.042 270.224C260.865 271.101 258.496 277.759 254.134 277.727C252.463 277.705 254.179 272.253 254.179 272.253Z" fill="#28A8E0"/>
<path d="M258.595 266.462C258.595 266.462 261.307 264.838 262.304 265.2C263.311 265.562 264.75 267.153 264.75 267.153L261.042 270.213L258.595 266.462Z" fill="#28A8E0"/>
<path d="M249.972 272.604L254.179 272.253L254.134 277.727L246.065 277.65L249.972 272.604Z" fill="#28A8E0"/>
<path d="M252.917 271.913L252.939 279.12L226.173 280.382C225.165 280.228 202.761 277.694 200.879 277.431L199.683 262.601C200.713 262.941 213.565 266.999 226.106 270.334C229.04 270.389 251.577 272.177 252.917 271.913Z" fill="#28A8E0"/>
<g opacity="0.1">
<path d="M252.917 271.913L252.939 279.12L226.173 280.382C225.165 280.228 202.761 277.694 200.879 277.431L199.683 262.601C200.713 262.941 213.565 266.999 226.106 270.334C229.04 270.389 251.577 272.177 252.917 271.913Z" fill="#28A8E0"/>
</g>
<path opacity="0.2" d="M218.048 279.646C213.299 278.988 203.945 277.847 200.89 277.431L200.37 271.003C203.469 274.14 205.063 276.136 218.048 279.646Z" fill="#28A8E0"/>
<path d="M172.253 252.783C172.264 252.761 175.452 248.626 180.622 250.074L180.699 250.118C182.935 250.962 185.691 252.103 188.293 253.397C193.285 255.822 203.857 263.248 205.229 264.498C207.211 266.187 207.753 269.105 207.2 271.639C205.329 279.767 197.569 299.358 183.433 319.541L153.867 302.594C153.855 302.583 163.563 294.894 172.253 252.783Z" fill="#28A8E0"/>
<path d="M202.783 253.211C202.429 253.65 202.096 254.11 201.798 254.582C201.643 254.801 201.51 255.01 201.366 255.24C200.956 255.898 200.613 256.403 200.359 256.82C199.816 257.719 199.705 258.224 200.259 259.134C201.311 260.856 201.687 262.962 201.023 264.871C200.37 266.725 198.964 268.304 195.997 267.153C189.632 264.257 188.049 257.204 188.049 257.204C192.887 255.536 195.886 246.213 197.115 240.882L199.517 246.103L202.783 253.211Z" fill="#F6968E"/>
<path opacity="0.2" d="M201.798 254.582C201.643 254.801 201.51 255.01 201.366 255.24C200.956 255.898 200.613 256.403 200.359 256.82C198.576 255.35 197.027 252.059 197.735 249.898C197.956 249.163 198.266 248.472 198.654 247.803L201.798 254.582Z" fill="black"/>
<path d="M203.303 228.881C207.676 225.909 213.653 227.017 216.653 231.35C221.18 237.569 216.62 247.342 212.004 252.114C210.697 253.518 208.993 254.494 207.122 254.911C202.019 256.052 196.938 252.871 195.798 247.803C194.558 242.67 196.805 239.061 200.082 232.611C200.801 231.108 201.919 229.825 203.303 228.881Z" fill="#F6968E"/>
<path d="M209.856 252.355C209.856 252.355 207.687 251.895 202.285 249.098C203.812 247.496 205.428 247.474 208.185 248.933C210.93 250.403 209.856 252.355 209.856 252.355Z" fill="#192E35"/>
<path d="M209.591 252.268C209.712 251.763 209.557 251.226 209.181 250.864C207.587 250.041 205.904 249.383 204.178 248.878C203.613 248.659 202.971 248.779 202.528 249.196C204.775 250.436 207.144 251.467 209.591 252.268Z" fill="#FAFBFB"/>
<path d="M208.971 250.951C207.366 250.6 205.827 250.008 204.399 249.196C204.045 248.9 203.779 248.516 203.635 248.077C204.797 247.562 206.203 247.858 208.185 248.9C208.949 249.24 209.568 249.854 209.923 250.611C209.624 250.765 209.303 250.885 208.971 250.951Z" fill="#FAFBFB"/>
<path d="M210.697 248.45C211.483 249.043 212.491 249.262 213.454 249.043C212.934 247.156 212.668 245.214 212.668 243.262L210.697 248.45Z" fill="#F15855"/>
<path d="M200.58 224.768C198.709 225.207 196.85 225.634 194.979 226.073C193.916 226.325 192.831 226.578 191.89 227.115C190.938 227.653 190.13 228.53 189.931 229.594C189.643 231.119 190.717 232.644 192.101 233.379C191.226 234.278 190.684 235.265 190.739 236.516C190.806 237.766 191.403 238.973 192.366 239.785C191.968 240.684 192.112 241.507 192.51 242.406C192.909 243.306 195.399 244.15 195.278 247.112C196.086 245.115 196.916 242.977 198.111 241.178C199.296 239.379 202.041 234.892 205.849 235.836C206.69 236.044 210.83 229.254 208.484 228.366C207.056 227.828 201.2 224.625 200.58 224.768Z" fill="#192E35"/>
<path d="M218.457 236.143C218.502 233.818 218.158 230.231 217.461 228.026C217.129 226.973 216.697 225.92 215.911 225.13C215.125 224.34 213.886 223.803 212.823 224.154C212.292 223.276 211.716 222.399 210.941 221.719C210.166 221.039 209.17 220.556 208.129 220.6C207.1 220.644 206.059 221.072 205.749 222.059C204.266 221.796 202.761 221.576 201.266 221.73C199.772 221.883 198.266 222.443 197.248 223.54C196.23 224.637 195.787 226.315 196.407 227.675C198.366 226.315 201.089 225.635 203.381 226.304C205.683 226.973 207.642 229.968 208.561 232.161C211.218 231.679 213.897 232.94 215.192 235.299C215.734 234.98 216.62 234.783 217.173 235.079C217.716 235.364 218.435 235.518 218.457 236.143Z" fill="#192E35"/>
<path d="M198.975 234.969C200.624 235.386 201.001 237.075 200.757 239.17C200.392 241.814 198.587 243.646 196.894 242.582C195.643 241.913 195.267 239.708 195.444 238.15C195.665 236.176 197.215 234.519 198.975 234.969Z" fill="#F6968E"/>
<path d="M209.79 240.421C210.111 240.629 210.111 241.254 209.834 241.715C209.557 242.176 209.059 242.417 208.727 242.22C208.395 242.022 208.417 241.463 208.672 240.936C208.982 240.421 209.469 240.212 209.79 240.421Z" fill="#192E35"/>
<path d="M215.889 242.933C216.221 243.13 216.254 243.701 215.978 244.216C215.69 244.732 215.192 244.995 214.86 244.798C214.528 244.6 214.494 244.019 214.782 243.503C215.048 242.999 215.557 242.724 215.889 242.933Z" fill="#192E35"/>
<path d="M216.022 240.07C216.133 240.114 216.21 240.213 216.232 240.322C216.354 241.211 216.885 241.99 217.66 242.439C217.826 242.516 217.904 242.714 217.837 242.878C217.837 242.878 217.837 242.889 217.826 242.889C217.738 243.054 217.538 243.13 217.361 243.054C216.376 242.505 215.701 241.54 215.546 240.432C215.524 240.246 215.646 240.07 215.834 240.037C215.9 240.037 215.956 240.048 216.022 240.07Z" fill="#192E35"/>
<path d="M208.838 238.205C208.937 238.139 209.059 238.128 209.17 238.172C209.978 238.567 210.919 238.578 211.738 238.194C211.893 238.095 212.103 238.139 212.203 238.304L212.214 238.315C212.303 238.479 212.247 238.688 212.092 238.786C211.085 239.291 209.901 239.291 208.882 238.797C208.705 238.71 208.639 238.512 208.716 238.337C208.738 238.282 208.782 238.238 208.838 238.205Z" fill="#192E35"/>
<path d="M452.788 236.549H248.389V452.432H452.788V236.549Z" fill="#4375BA"/>
<path opacity="0.75" d="M452.788 236.549H248.389V452.432H452.788V236.549Z" fill="#A7DFF7"/>
<path opacity="0.1" d="M452.799 236.549H399.577V452.432H452.799V236.549Z" fill="black"/>
<path d="M246.098 270.18C246.153 269.083 249.596 263.862 250.371 264.114C251.135 264.366 253.083 267.361 253.005 267.855C252.861 268.765 250.703 275.632 246.264 275.752C244.559 275.796 246.098 270.18 246.098 270.18Z" fill="#F6968E"/>
<path d="M250.371 264.103C250.371 264.103 253.072 262.348 254.101 262.677C255.142 263.006 256.669 264.575 256.669 264.575L253.005 267.844L250.371 264.103Z" fill="#F6968E"/>
<path d="M241.825 270.695L246.098 270.18L246.264 275.752L238.05 275.983L241.825 270.695Z" fill="#F6968E"/>
<path d="M182.68 250.852C172.829 246.048 168.168 257.193 173.46 263.259C175.519 265.617 191.16 273.548 206.037 275.818C218.479 277.716 239.611 277.793 243.541 277.639L243.286 269.182L207.078 265.332L182.68 250.852Z" fill="#4375BA"/>
<path d="M182.68 250.852C172.829 246.048 168.168 257.193 173.46 263.259C175.519 265.617 191.16 273.548 206.037 275.818C218.479 277.716 239.611 277.793 243.541 277.639L243.286 269.182L207.078 265.332L182.68 250.852Z" fill="#28A8E0"/>
<path d="M157.265 451.269C155.14 451.444 222.553 451.269 222.553 451.269L222.254 441.123L213.664 446.607V442.132L199.805 447.496V442.713C199.816 442.713 188.215 448.702 157.265 451.269Z" fill="#4375BA"/>
<path opacity="0.6" d="M157.265 451.269C155.14 451.444 222.553 451.269 222.553 451.269L222.254 441.123L213.664 446.607V442.132L199.805 447.496V442.713C199.816 442.713 188.215 448.702 157.265 451.269Z" fill="white"/>
<path d="M249.662 432.314L226.173 442.132C225.63 441.616 222.951 434.453 222.951 434.453L243.84 424.647L249.662 432.314Z" fill="#F6968E"/>
<path d="M226.804 444.106C226.782 444.008 226.826 443.909 226.892 443.854C226.97 443.799 227.08 443.799 227.158 443.854C227.291 443.953 230.434 446.256 230.722 447.957C230.789 448.275 230.733 448.615 230.567 448.878C230.401 449.218 230.047 449.394 229.682 449.339C229.029 449.24 228.364 448.198 227.855 447.024C227.424 446.092 227.069 445.116 226.804 444.106ZM230.169 447.627C229.46 446.465 228.542 445.467 227.457 444.677C227.999 446.454 229.051 448.746 229.792 448.9C229.892 448.911 230.036 448.9 230.224 448.626C230.324 448.461 230.368 448.264 230.324 448.066C230.291 447.902 230.235 447.759 230.169 447.627Z" fill="#4375BA"/>
<path d="M226.848 443.953C226.87 443.865 226.937 443.81 227.025 443.799C227.125 443.766 229.538 442.856 230.966 443.558C231.364 443.777 231.663 444.15 231.796 444.611C232.006 445.225 231.774 445.532 231.586 445.697C230.7 446.355 227.866 445.115 226.903 444.249C226.881 444.227 226.837 444.172 226.837 444.172L226.848 443.953ZM230.755 443.997C229.704 443.69 228.597 443.733 227.567 444.117C228.719 444.918 230.877 445.708 231.375 445.269C231.42 445.236 231.553 445.137 231.42 444.743L231.331 444.622C231.22 444.359 231.01 444.128 230.755 443.997Z" fill="#4375BA"/>
<path d="M227.767 441.913L224.601 433.916C224.446 433.532 224.058 433.324 223.682 433.412L215.944 434.706C215.181 434.892 214.926 436.68 214.959 436.768C216.609 442.472 220.66 453.386 222.276 457.247C223.881 461.109 227.711 459.946 227.39 458.224C225.918 450.469 226.826 446.871 227.811 443.733C228.01 443.141 227.999 442.494 227.767 441.913Z" fill="#192E35"/>
<g opacity="0.2">
<path d="M235.36 428.508L243.851 424.647L249.662 432.314L239.312 436.516L235.36 428.508Z" fill="black"/>
</g>
<path d="M280.103 343.454C279.129 345.56 278.83 346.24 278.233 348.5C275.775 357.714 277.093 407.459 274.801 407.963C266.012 409.916 255.385 415.137 240.364 426.172C241.77 430.11 243.187 432.918 244.382 437.503C244.382 437.503 279.749 426.94 289.645 420.501C295.745 416.53 310.013 346.668 307.036 341.128C305.364 338.013 287.487 327.527 280.103 343.454Z" fill="#4375BA"/>
<path d="M280.103 343.454C279.129 345.56 278.83 346.24 278.233 348.5C275.775 357.714 277.093 407.459 274.801 407.963C266.012 409.916 255.385 415.137 240.364 426.172C241.77 430.11 243.187 432.918 244.382 437.503C244.382 437.503 279.749 426.94 289.645 420.501C295.745 416.53 310.013 346.668 307.036 341.128C305.364 338.013 287.487 327.527 280.103 343.454Z" fill="#28A8E0"/>
<path d="M312.98 329.94L315.991 331.07C313.6 347.534 311.984 353.688 311.984 353.688L308.486 362.88C308.486 362.88 282.804 368.2 276.893 356.573C266.256 335.655 283.004 319.201 283.004 319.201C283.004 319.201 302.021 325.443 312.98 329.94Z" fill="#28A8E0"/>
<path d="M348.281 432.304L343.056 456.271C342.248 456.524 335.008 456.885 335.008 456.885L337.632 433.631L348.281 432.304Z" fill="#F6968E"/>
<path d="M345.336 455.756C345.248 455.712 345.203 455.613 345.214 455.514C345.237 455.416 345.303 455.328 345.403 455.295C345.569 455.251 349.498 454.11 350.971 454.955C351.258 455.097 351.469 455.361 351.546 455.668C351.679 456.019 351.557 456.425 351.258 456.688C350.727 457.16 349.487 457.05 348.248 456.732C347.24 456.502 346.266 456.172 345.336 455.756ZM350.318 455.207C348.956 455.065 347.561 455.185 346.211 455.569C347.915 456.249 350.351 456.831 350.993 456.304C351.07 456.227 351.17 456.107 351.092 455.778C351.048 455.591 350.926 455.438 350.749 455.35C350.616 455.284 350.473 455.229 350.318 455.185V455.207Z" fill="#4375BA"/>
<path d="M345.248 455.624C345.203 455.547 345.203 455.459 345.259 455.383C345.314 455.273 346.333 452.706 347.871 451.982C348.314 451.785 348.812 451.785 349.244 451.96C349.853 452.18 349.908 452.553 349.897 452.827C349.753 453.979 346.831 455.525 345.513 455.778C345.48 455.778 345.403 455.778 345.403 455.778L345.248 455.624ZM348.048 452.443C347.074 453.112 346.321 454.055 345.89 455.152C347.296 454.703 349.41 453.419 349.443 452.739C349.443 452.673 349.465 452.509 349.078 452.366H348.923C348.646 452.278 348.325 452.3 348.048 452.443Z" fill="#4375BA"/>
<path d="M344.395 453.584L335.252 450.83C334.864 450.721 334.433 450.896 334.222 451.269L329.706 458.465C329.297 459.211 330.448 460.549 330.536 460.582C335.927 462.82 347.86 466.692 351.856 467.8C355.852 468.918 357.701 465.024 356.195 464.202C349.41 460.527 347.384 457.489 345.768 454.702C345.469 454.154 344.982 453.759 344.395 453.584Z" fill="#192E35"/>
<g opacity="0.2">
<path d="M336.768 441.244L337.632 433.62L348.281 432.304L346.056 442.713L336.768 441.244Z" fill="black"/>
</g>
<path d="M277.192 351.363C290.144 368.979 339.768 387.637 339.768 387.637C339.768 387.637 336.768 408.972 336.768 435.419C341.639 435.627 348.225 437.591 348.225 437.591C348.225 437.591 360.291 389.754 360.291 378.961C360.291 368.727 296.188 322.119 280.856 330.543C276.606 332.88 271.148 343.158 277.192 351.363Z" fill="#28A8E0"/>
<path d="M351.945 432.698C352.033 432.709 350.008 439.378 350.008 439.378L333.104 436.658L334.112 430.406L351.945 432.698Z" fill="#4375BA"/>
<path d="M249.031 436.834C249.065 436.911 243.021 438.753 243.021 438.753L237.729 424.768L242.998 422.3L249.031 436.834Z" fill="#4375BA"/>
<path d="M351.945 432.698C352.033 432.709 350.008 439.378 350.008 439.378L333.104 436.658L334.112 430.406L351.945 432.698Z" fill="#28A8E0"/>
<path d="M249.031 436.834C249.065 436.911 243.021 438.753 243.021 438.753L237.729 424.768L242.998 422.3L249.031 436.834Z" fill="#28A8E0"/>
<path d="M314.607 334.02L281.819 317.281C283.192 314.024 285.317 309.471 291.538 296.232C295.667 287.051 299.198 277.617 302.099 267.986C302.11 267.953 302.121 267.931 302.121 267.91C302.962 265.441 305.652 264.103 308.154 264.937L308.231 264.981C310.523 265.76 313.367 266.802 316.057 268.019C321.216 270.29 326.241 272.857 331.101 275.698C332.673 276.729 334.189 277.848 335.617 279.065C337.687 280.71 338.683 283.343 338.219 285.932C336.636 294.246 333.259 303.471 314.607 334.02Z" fill="#4375BA"/>
<path opacity="0.8" d="M314.607 334.021L282.959 317.874C284.343 314.616 285.007 314.594 302.099 267.997C302.11 267.965 302.121 267.943 302.121 267.921C302.973 265.453 305.608 264.092 308.021 264.882L308.098 264.915C310.312 265.65 313.069 266.648 315.659 267.822C320.64 270.005 325.478 272.473 330.16 275.226C331.676 276.224 333.127 277.321 334.499 278.506C336.492 280.107 337.422 282.707 336.923 285.285C335.263 293.545 333.171 303.428 314.607 334.021Z" fill="white"/>
<path d="M314.629 339.933C314.751 339.198 279.019 325.859 279.019 325.859L280.834 321.593L316.079 336.642L314.629 339.933Z" fill="#192E35"/>
<path opacity="0.7" d="M314.629 339.933C314.751 339.198 279.019 325.859 279.019 325.859L280.834 321.593L316.079 336.642L314.629 339.933Z" fill="white"/>
<path d="M315.836 267.241C313.002 265.968 310.002 264.86 307.578 264.038L307.501 263.994C307.456 263.983 307.401 263.961 307.357 263.95C304.722 263.138 301.91 264.608 301.102 267.219C298.944 274.162 294.981 286.36 289.978 297C280.458 305.643 266.853 302.035 258.972 309.702L251.765 315.603C251.765 315.603 252.496 315.79 254.09 316.185C265.514 319.048 276.063 324.664 284.764 332.54C315.449 321.592 319.345 274.93 317.386 267.899L315.836 267.241Z" fill="#192E35"/>
<path opacity="0.2" d="M294.494 286.382C296.553 280.875 297.97 277.047 299.973 270.816C300.073 270.751 300.184 270.696 300.294 270.652C302.896 269.445 305.674 269.226 302.054 276.784C302.054 276.784 295.911 285.844 294.494 286.382Z" fill="black"/>
<path d="M323.518 276.992C315.858 273.591 315.437 267.789 315.437 267.789C320.386 266.22 323.684 256.831 325.057 251.456L327.359 256.82L330.492 264.125C329.95 264.772 329.463 265.441 328.998 266.143C327.171 268.93 326.551 272.012 330.392 275.259C330.415 275.27 330.06 279.866 323.518 276.992Z" fill="#F6968E"/>
<path d="M314.209 266.461L316.943 266.79C318.16 270.531 322.068 274.348 324.846 277.156C322.909 277.387 321.072 278.176 319.588 279.438C313.046 272.703 314.209 266.461 314.209 266.461Z" fill="#4375BA"/>
<path opacity="0.7" d="M316.943 266.79C318.161 270.531 322.068 274.348 324.847 277.156C322.909 277.386 321.072 278.176 319.589 279.438C313.035 272.714 314.209 266.472 314.209 266.472" fill="white"/>
<path d="M330.603 274.842L328.688 273.306C328.688 273.306 325.533 277.277 323.009 276.773C326.086 280.217 325.743 282.422 325.743 282.422C332.186 283.475 330.603 274.842 330.603 274.842Z" fill="#4375BA"/>
<path d="M385.74 283.299C385.762 282.29 388.784 277.365 389.504 277.584C390.223 277.793 392.105 280.502 392.05 280.963C391.95 281.808 390.146 288.203 386.05 288.444C384.478 288.532 385.74 283.299 385.74 283.299Z" fill="#F6968E"/>
<path d="M389.515 277.585C389.515 277.585 391.95 275.895 392.913 276.17C393.876 276.444 395.337 277.848 395.337 277.848L392.05 280.963L389.515 277.585Z" fill="#F6968E"/>
<path d="M381.821 283.903L385.795 283.935L386.061 288.433L378.478 288.883L381.821 283.903Z" fill="#F6968E"/>
<path d="M383.703 283.826L382.342 290.232L357.136 292.173C356.184 292.064 336.005 290.045 334.222 289.87L332.573 275.961C333.558 276.246 344.805 280.03 356.716 282.718C359.472 282.674 383.703 283.826 383.703 283.826Z" fill="#192E35"/>
<g opacity="0.2">
<path d="M383.703 283.826L382.342 290.232L357.136 292.173C356.184 292.064 336.005 290.045 334.222 289.87L332.573 275.961C333.558 276.246 344.805 280.03 356.716 282.718C359.472 282.674 383.703 283.826 383.703 283.826Z" fill="black"/>
</g>
<path opacity="0.2" d="M348.38 291.285C343.886 290.835 337.112 290.155 334.222 289.87L333.603 284.67C335.695 285.8 343.333 288.707 348.38 291.285Z" fill="black"/>
<path d="M315.449 342.204L309.316 338.551C325.267 313.476 331.754 284.067 330.47 274.875C332.794 276.203 332.861 275.742 335.031 277.31C337.267 279.241 338.307 282.192 337.787 285.087C337.765 292.777 333.558 302.583 315.449 342.204Z" fill="#192E35"/>
<path opacity="0.7" d="M330.603 274.842L328.688 273.306C328.688 273.306 325.533 277.277 323.009 276.773C326.086 280.217 325.743 282.422 325.743 282.422C332.186 283.475 330.603 274.842 330.603 274.842Z" fill="white"/>
<path opacity="0.2" d="M329.474 265.496L326.463 258.531C326.053 259.2 325.732 259.902 325.478 260.637C324.703 262.864 326.286 266.374 328.112 267.844L329.474 265.496Z" fill="black"/>
<path d="M331.665 239.445C336.182 236.538 342.215 237.81 345.148 242.286C349.587 248.714 344.694 258.52 339.901 263.237C338.54 264.63 336.791 265.573 334.876 265.946C329.662 266.977 324.592 263.621 323.562 258.454C322.444 253.211 324.802 249.602 328.311 243.141C329.075 241.638 330.237 240.366 331.665 239.445Z" fill="#F6968E"/>
<path d="M323.33 256.908C323.33 256.908 324.171 250.919 328.012 250.195C328.333 246.718 330.935 248.67 332.352 246.805C334.211 244.732 335.883 242.681 334.577 239.993L330.902 237.635C319.057 233.182 323.33 256.908 323.33 256.908Z" fill="#192E35"/>
<path d="M339.237 259.332C340.078 259.88 341.108 260.034 342.071 259.759C341.418 257.884 341.019 255.931 340.897 253.957L339.237 259.332Z" fill="#F15855"/>
<path d="M327.492 245.598C329.64 246.289 329.972 248.417 329.407 250.161C328.964 252.838 327.049 254.681 324.957 252.52C324.116 251.16 323.784 249.558 324.005 247.99C324.271 246.004 325.732 245.028 327.492 245.598Z" fill="#F6968E"/>
<path d="M337.953 251.324C338.274 251.544 338.263 252.18 337.964 252.641C337.676 253.101 337.156 253.332 336.824 253.123C336.492 252.915 336.536 252.344 336.802 251.818C337.134 251.302 337.632 251.105 337.953 251.324Z" fill="#192E35"/>
<path d="M343.864 253.979C344.185 254.198 344.196 254.78 343.886 255.284C343.565 255.789 343.045 256.03 342.724 255.811C342.403 255.591 342.392 255.01 342.713 254.494C343.012 254.001 343.543 253.759 343.864 253.979Z" fill="#192E35"/>
<path d="M339.414 249.525C339.314 249.591 339.193 249.602 339.082 249.558C338.263 249.141 337.311 249.119 336.481 249.503C336.315 249.602 336.104 249.547 336.005 249.394L335.994 249.383C335.905 249.218 335.96 249.01 336.126 248.911C337.156 248.417 338.362 248.428 339.381 248.944C339.558 249.032 339.624 249.24 339.547 249.416C339.514 249.448 339.469 249.492 339.414 249.525Z" fill="#192E35"/>
<path d="M345.702 253.902C345.591 253.869 345.491 253.792 345.447 253.683C345.181 252.816 344.528 252.114 343.676 251.785C343.488 251.741 343.388 251.555 343.432 251.368C343.432 251.357 343.432 251.357 343.432 251.346C343.488 251.16 343.687 251.061 343.864 251.105C344.938 251.5 345.768 252.367 346.1 253.441C346.155 253.628 346.056 253.825 345.879 253.88C345.823 253.913 345.768 253.913 345.702 253.902Z" fill="#192E35"/>
<path d="M350.118 241.562C349.266 243.361 347.284 244.161 345.569 243.81C343.034 243.306 336.99 240.223 336.359 239.938C335.728 239.653 334.986 239.565 334.377 239.927C333.769 240.289 333.547 241.09 333.78 241.836C331.787 240.882 328.832 238.852 327.083 237.361C326.872 236.373 327.381 234.476 328.012 233.785C328.643 233.083 329.518 232.753 330.37 232.699C331.234 232.644 332.086 232.863 332.916 233.137C335.053 233.872 338.329 235.364 340.3 236.582C342.049 237.668 343.953 238.863 345.89 238.414C346.465 238.282 346.864 237.569 346.853 236.878C347.329 237.415 347.738 238.03 348.093 238.688C348.402 238.084 348.58 237.393 348.436 236.702C349.498 237.624 350.76 240.212 350.118 241.562Z" fill="#192E35"/>
<path d="M371.139 296.396C371.394 295.31 375.8 290.714 376.519 291.109C377.239 291.504 378.633 294.839 378.467 295.321C378.157 296.199 374.748 302.671 370.287 302.002C368.571 301.738 371.139 296.396 371.139 296.396Z" fill="#F6968E"/>
<path d="M376.508 291.109C376.508 291.109 379.519 289.848 380.493 290.364C381.467 290.879 382.707 292.722 382.707 292.722L378.445 295.322L376.508 291.109Z" fill="#F6968E"/>
<path d="M366.778 296.155L371.139 296.396L370.276 301.991L362.029 300.751L366.778 296.155Z" fill="#F6968E"/>
<path d="M311.342 265.661C302.375 259.079 295.689 269.379 299.852 276.389C301.479 279.12 315.637 289.859 330.082 294.806C342.159 298.941 363.247 302.824 367.21 303.384L368.516 294.894L333.06 284.517L311.342 265.661Z" fill="#192E35"/>
<path d="M301.903 328.016L300.308 327.361L297.439 334.221L299.035 334.876L301.903 328.016Z" fill="#192E35"/>
<path d="M339.093 261.164C339.093 261.164 337.399 259.683 331.887 256.929C331.51 259.079 331.887 261.153 334.709 262.557C336.038 263.412 337.931 262.897 338.927 261.416C338.993 261.339 339.038 261.251 339.093 261.164Z" fill="#192E35"/>
<path d="M334.234 260.45C335.352 260.922 336.259 261.778 336.813 262.886C336.082 262.995 335.352 262.886 334.743 262.546C333.625 262.074 332.717 261.218 332.175 260.121C332.894 260.001 333.625 260.11 334.234 260.45Z" fill="#F15855"/>
<path d="M338.872 260.988C338.506 261.383 337.975 261.569 337.499 261.46C335.872 260.637 334.322 259.661 332.883 258.553C332.396 258.235 332.119 257.664 332.152 257.039C334.499 258.158 336.746 259.485 338.872 260.988Z" fill="white"/>
<path d="M581.405 354.565C581.405 414.687 532.234 463.423 471.551 463.423C437.058 463.423 406.285 447.682 386.139 423.035C378.489 413.667 372.379 403.027 368.173 391.477C363.988 379.959 361.697 367.531 361.697 354.565C361.697 294.455 410.868 245.708 471.551 245.708C484.613 245.708 497.144 247.968 508.756 252.114C520.434 256.271 531.183 262.348 540.636 269.939C565.498 289.892 581.405 320.375 581.405 354.565Z" fill="#28A8E0"/>
<path d="M531.083 258.619C535.234 261.142 539.23 263.939 543.038 266.999" stroke="#28A8E0" stroke-miterlimit="10"/>
<path d="M471.551 241.924C488.576 241.924 505.346 245.752 520.545 252.937" stroke="#28A8E0" stroke-miterlimit="10"/>
</g>
<defs>
<clipPath id="clip0_17_345">
<rect width="636" height="468" fill="white"/>
</clipPath>
</defs>
</svg>
