<svg width="531" height="514" viewBox="0 0 531 514" fill="none" xmlns="http://www.w3.org/2000/svg">
<g clip-path="url(#clip0_18_625)">
<path d="M517.141 309.491C517.141 309.491 462.655 357.999 382.83 311.061C327.464 278.511 305.638 157.874 257.963 221.435C208.353 287.555 137.623 352.683 45.5111 286.729" stroke="#28A8E0" stroke-miterlimit="10"/>
<path d="M516.761 308.262C516.493 308.139 461.073 354.009 381.523 309.813C326.323 279.151 303.379 161.764 255.919 222.591C206.574 285.938 137.497 348.698 46.5794 284.072" stroke="#28A8E0" stroke-miterlimit="10"/>
<path d="M516.369 307.03C515.832 306.785 459.461 350.006 380.204 308.562C325.165 279.78 301.098 165.655 253.866 223.752C204.775 284.322 137.369 344.725 47.6396 281.418" stroke="#28A8E0" stroke-miterlimit="10"/>
<path d="M515.984 305.793C515.171 305.43 457.857 345.998 378.905 307.31C324.019 280.412 298.842 169.531 251.83 224.904C202.999 282.693 137.244 340.739 48.7158 278.755" stroke="#28A8E0" stroke-miterlimit="10"/>
<path d="M515.592 304.561C514.51 304.075 456.238 341.999 377.585 306.058C322.84 281.043 296.562 173.422 249.778 226.065C201.213 281.08 137.11 336.758 49.776 276.102" stroke="#28A8E0" stroke-miterlimit="10"/>
<path d="M515.207 303.324C513.862 302.724 454.609 337.985 376.282 304.798C321.677 281.664 294.191 177.199 247.737 227.209C199.313 279.335 136.988 332.76 50.8475 273.431" stroke="#28A8E0" stroke-miterlimit="10"/>
<path d="M514.815 302.093C513.201 301.369 452.959 333.973 374.962 303.547C320.486 282.292 291.9 181.054 245.672 228.368C197.487 277.694 136.839 328.789 51.8906 270.767" stroke="#28A8E0" stroke-miterlimit="10"/>
<path d="M514.435 300.863C512.553 300.017 451.307 329.972 373.668 302.302C319.299 282.928 289.627 184.92 243.644 229.535C195.707 276.056 136.731 324.814 52.9759 268.12" stroke="#28A8E0" stroke-miterlimit="10"/>
<path d="M514.042 299.632C511.884 298.667 449.634 325.975 372.348 301.051C318.088 283.558 287.328 188.78 241.588 230.688C193.884 274.402 136.593 320.826 54.0316 265.459" stroke="#28A8E0" stroke-miterlimit="10"/>
<path d="M513.657 298.394C511.231 297.308 447.943 321.966 371.037 299.795C316.871 284.179 285.045 192.63 239.543 231.844C192.087 272.753 136.464 316.852 55.0997 262.8" stroke="#28A8E0" stroke-miterlimit="10"/>
<path d="M513.265 297.163C510.571 295.953 446.242 317.975 369.73 298.547C315.652 284.814 282.762 196.481 237.499 233.001C190.292 271.093 136.339 312.867 56.1759 260.138" stroke="#28A8E0" stroke-miterlimit="10"/>
<path d="M512.881 295.926C509.918 294.594 444.528 313.98 368.418 297.291C314.412 285.451 280.487 200.326 235.454 234.158C188.49 269.437 136.214 308.882 57.2441 257.48" stroke="#28A8E0" stroke-miterlimit="10"/>
<path d="M512.493 294.701C509.262 293.247 442.795 310.008 367.111 296.043C313.164 286.092 278.208 204.184 233.41 235.314C186.696 267.776 136.081 304.901 58.3121 254.821" stroke="#28A8E0" stroke-miterlimit="10"/>
<path d="M512.108 293.465C508.606 291.9 441.055 306.041 365.8 294.787C311.908 286.738 275.941 208.025 231.366 236.47C184.906 266.123 135.96 300.923 59.3757 252.156" stroke="#28A8E0" stroke-miterlimit="10"/>
<path d="M511.716 292.233C507.945 290.545 439.298 302.083 364.485 293.544C310.637 287.393 273.663 211.883 229.313 237.631C183.112 264.462 135.827 296.942 60.4361 249.502" stroke="#28A8E0" stroke-miterlimit="10"/>
<path d="M511.331 290.996C507.292 289.186 437.526 298.134 363.181 292.284C309.365 288.049 271.403 215.719 227.277 238.783C181.345 262.795 135.701 292.957 61.5121 246.839" stroke="#28A8E0" stroke-miterlimit="10"/>
<path d="M510.939 289.764C506.631 287.831 435.743 294.203 361.862 291.033C308.07 288.719 269.136 219.56 225.22 239.937C179.551 261.134 135.568 288.976 62.5678 244.178" stroke="#28A8E0" stroke-miterlimit="10"/>
<path d="M510.559 288.535C505.975 286.484 433.953 290.297 360.563 289.78C306.792 289.399 266.889 223.399 223.188 241.096C177.79 259.474 135.455 284.993 63.6485 241.523" stroke="#28A8E0" stroke-miterlimit="10"/>
<path d="M510.166 287.303C505.314 285.129 432.148 286.401 359.248 288.536C305.483 290.099 264.639 227.251 221.136 242.257C176.02 257.819 135.314 281.017 64.7088 238.87" stroke="#28A8E0" stroke-miterlimit="10"/>
<path d="M509.782 286.067C504.661 283.77 430.344 282.525 357.944 287.276C304.191 290.809 262.397 231.098 219.099 243.409C174.267 256.155 135.197 277.027 65.7803 236.199" stroke="#28A8E0" stroke-miterlimit="10"/>
<path d="M509.389 284.834C504 282.415 428.529 278.665 356.625 286.025C302.871 291.526 260.146 234.949 217.042 244.562C172.505 254.495 135.064 273.046 66.8358 233.538" stroke="#28A8E0" stroke-miterlimit="10"/>
<path d="M509.005 283.598C503.352 281.063 426.724 274.822 355.318 284.777C301.564 292.266 257.922 238.807 215.002 245.727C170.753 252.851 134.935 269.073 67.9087 230.888" stroke="#28A8E0" stroke-miterlimit="10"/>
<path d="M508.612 282.366C502.683 279.714 424.904 271.008 354.006 283.521C300.25 293.011 255.689 242.669 212.953 246.875C169.009 251.202 134.805 265.08 68.98 228.217" stroke="#28A8E0" stroke-miterlimit="10"/>
<path d="M508.232 281.137C502.035 278.362 423.094 267.21 352.699 282.273C298.946 293.771 253.465 246.547 210.909 248.032C167.262 249.566 134.684 261.102 70.0482 225.559" stroke="#28A8E0" stroke-miterlimit="10"/>
<path d="M507.84 279.905C501.374 277.007 421.285 263.432 351.388 281.017C297.638 294.544 251.245 250.412 208.865 249.188C165.527 247.932 134.551 257.122 71.1165 222.901" stroke="#28A8E0" stroke-miterlimit="10"/>
<path d="M507.455 278.668C500.721 275.648 419.481 259.662 350.081 279.769C296.344 295.34 249.018 254.302 206.82 250.345C163.789 246.311 134.426 253.136 72.1846 220.243" stroke="#28A8E0" stroke-miterlimit="10"/>
<path d="M507.063 277.436C500.061 274.293 417.686 255.907 348.761 278.518C295.034 296.146 246.792 258.192 204.768 251.506C162.04 244.707 134.293 249.155 73.2403 217.582" stroke="#28A8E0" stroke-miterlimit="10"/>
<path d="M506.678 276.199C499.4 272.938 415.901 252.167 347.457 277.258C293.753 296.944 244.565 262.082 202.726 252.65C160.302 243.086 134.167 245.17 74.3116 214.911" stroke="#28A8E0" stroke-miterlimit="10"/>
<path d="M506.29 274.975C498.744 271.592 414.122 248.456 346.143 276.015C292.462 297.781 242.332 265.997 200.679 253.819C158.555 241.503 134.039 241.197 75.3766 212.266" stroke="#28A8E0" stroke-miterlimit="10"/>
<path d="M505.906 273.738C498.096 270.24 412.35 244.74 344.844 274.762C291.199 298.611 240.107 269.908 198.643 254.971C156.81 239.907 133.921 237.206 76.4528 209.603" stroke="#28A8E0" stroke-miterlimit="10"/>
<path d="M505.513 272.506C497.435 268.885 410.588 241.039 343.524 273.511C289.926 299.458 237.854 273.825 196.59 256.131C155.05 238.32 133.785 233.238 77.513 206.949" stroke="#28A8E0" stroke-miterlimit="10"/>
<path d="M505.129 271.27C496.782 267.526 408.852 237.344 342.213 272.255C288.673 300.304 235.613 277.745 194.541 257.281C153.278 236.731 133.655 229.245 78.5766 204.284" stroke="#28A8E0" stroke-miterlimit="10"/>
<path d="M504.736 270.037C496.113 266.176 407.12 233.657 340.901 270.999C287.424 301.157 233.36 281.662 192.489 258.442C151.502 235.154 133.522 225.264 79.6322 201.623" stroke="#28A8E0" stroke-miterlimit="10"/>
<path d="M504.357 268.809C495.465 264.824 405.405 229.981 339.599 269.759C286.202 302.036 231.108 285.599 190.449 259.606C149.739 233.58 133.393 221.291 80.7052 198.972" stroke="#28A8E0" stroke-miterlimit="10"/>
<path d="M503.964 267.576C494.804 263.469 403.695 226.312 338.287 268.503C284.979 302.895 228.842 289.513 188.405 260.762C147.958 231.996 133.272 217.313 81.7733 196.314" stroke="#28A8E0" stroke-miterlimit="10"/>
<path d="M503.579 266.34C494.151 262.11 402.008 222.629 336.976 267.247C283.76 303.761 226.568 293.432 186.356 261.911C146.165 230.408 133.142 213.32 82.8447 193.643" stroke="#28A8E0" stroke-miterlimit="10"/>
<path d="M503.187 265.108C493.49 260.755 400.319 218.958 335.669 265.999C282.567 304.634 224.299 297.359 184.316 263.075C144.389 228.832 133.014 209.347 83.9176 190.993" stroke="#28A8E0" stroke-miterlimit="10"/>
<path d="M502.802 263.871C492.834 259.408 398.649 215.286 334.357 264.744C281.373 305.507 222.025 301.277 182.267 264.224C142.584 227.241 132.888 205.361 84.9811 188.327" stroke="#28A8E0" stroke-miterlimit="10"/>
<path d="M502.41 262.639C492.173 258.054 396.988 211.609 333.038 263.493C280.18 306.379 219.731 305.198 180.215 265.385C140.783 225.658 132.755 201.381 86.0414 185.674" stroke="#28A8E0" stroke-miterlimit="10"/>
<path d="M502.03 261.41C491.525 256.702 395.344 207.942 331.739 262.24C279.011 307.258 217.465 309.112 178.178 266.537C138.998 224.066 132.63 197.395 87.1127 183.003" stroke="#28A8E0" stroke-miterlimit="10"/>
<path d="M501.638 260.178C490.864 255.347 393.703 204.263 330.424 260.996C277.843 308.136 215.17 313.033 176.13 267.705C137.189 222.488 132.506 193.43 88.1777 180.357" stroke="#28A8E0" stroke-miterlimit="10"/>
<path d="M501.253 258.941C490.211 253.988 392.082 200.583 329.12 259.736C276.686 308.998 212.892 316.944 174.089 268.85C135.387 220.885 132.384 189.432 89.2491 177.687" stroke="#28A8E0" stroke-miterlimit="10"/>
<path d="M500.861 257.709C489.543 252.638 390.449 196.899 327.801 258.485C275.525 309.871 210.588 320.849 172.032 270.003C133.572 219.279 132.238 185.448 90.3048 175.026" stroke="#28A8E0" stroke-miterlimit="10"/>
<path d="M500.476 256.472C488.89 251.278 388.844 193.208 326.489 257.229C274.38 310.735 208.297 324.757 169.988 271.159C131.766 217.688 132.113 181.462 91.3729 172.368" stroke="#28A8E0" stroke-miterlimit="10"/>
<path d="M500.088 255.248C488.234 249.932 387.237 189.531 325.187 255.989C273.253 311.61 206.011 328.673 167.948 272.324C129.96 216.098 131.997 177.493 92.4458 169.718" stroke="#28A8E0" stroke-miterlimit="10"/>
<path d="M499.704 254.011C487.586 248.58 385.64 185.835 323.875 254.733C272.116 312.47 203.728 332.577 165.904 273.48C128.158 214.495 131.863 173.512 93.5093 167.052" stroke="#28A8E0" stroke-miterlimit="10"/>
<path d="M499.311 252.779C486.925 247.225 384.051 182.136 322.564 253.477C270.987 313.324 201.306 336.553 163.855 274.629C126.217 212.965 131.734 169.518 94.5729 164.386" stroke="#28A8E0" stroke-miterlimit="10"/>
<path d="M498.927 251.543C486.264 245.871 382.462 178.436 321.257 252.23C269.863 314.187 199.034 340.44 161.815 275.793C124.438 211.348 131.618 165.548 95.6537 161.731" stroke="#28A8E0" stroke-miterlimit="10"/>
<path d="M498.534 250.311C485.603 244.516 380.88 174.731 319.945 250.974C268.741 315.036 196.77 344.321 159.766 276.942C122.65 209.715 131.48 161.56 96.717 159.065" stroke="#28A8E0" stroke-miterlimit="10"/>
<path d="M498.154 249.082C484.955 243.164 379.307 171.022 318.638 249.726C267.633 315.889 194.51 348.21 157.726 278.106C120.871 208.098 131.359 157.582 97.79 156.414" stroke="#28A8E0" stroke-miterlimit="10"/>
<path d="M497.762 247.85C484.294 241.809 377.864 167.402 317.319 248.475C266.616 316.824 192.225 352.093 155.669 279.259C119.072 206.482 131.221 153.594 98.8456 153.753" stroke="#28A8E0" stroke-miterlimit="10"/>
<path d="M497.377 246.613C483.633 240.455 376.171 163.585 316.02 247.222C265.411 317.587 189.974 355.977 153.637 280.419C117.301 204.86 131.105 149.623 99.9264 151.098" stroke="#28A8E0" stroke-miterlimit="10"/>
</g>
<defs>
<clipPath id="clip0_18_625">
<rect width="407.083" height="352.687" fill="white" transform="translate(0 211.759) rotate(-31.2599)"/>
</clipPath>
</defs>
</svg>
