<svg width="273" height="301" viewBox="0 0 273 301" fill="none" xmlns="http://www.w3.org/2000/svg">
<mask id="mask0_16_62" style="mask-type:luminance" maskUnits="userSpaceOnUse" x="4" y="0" width="265" height="294">
<path d="M268.5 293.5H4.5L4.5 0.5H268.5L268.5 293.5Z" fill="white"/>
<path d="M268.5 293.5H4.5L4.5 0.5H268.5L268.5 293.5Z" stroke="white"/>
</mask>
<g mask="url(#mask0_16_62)">
<path d="M493.795 299.068C493.795 299.068 401.659 314.665 345.311 218.249C306.224 151.381 362.655 16.0626 267.965 51.0521C169.445 87.442 48.4018 109.87 -8.76196 -13.3037" stroke="#28A8E0" stroke-miterlimit="10"/>
<path d="M494.197 297.582C493.984 297.293 402.581 309.651 344.708 216.175C304.545 151.317 357.583 18.5964 264.95 50.956C168.57 84.7054 50.9202 105.755 -5.818 -15.3455" stroke="#28A8E0" stroke-miterlimit="10"/>
<path d="M494.587 296.096C494.161 295.519 403.479 304.616 344.093 214.101C302.855 151.242 352.487 21.1296 261.924 50.8702C167.671 81.9683 53.4266 101.66 -2.88595 -17.377" stroke="#28A8E0" stroke-miterlimit="10"/>
<path d="M494.989 294.621C494.339 293.755 404.39 299.592 343.502 212.049C301.176 151.189 347.427 23.6744 258.921 50.7958C166.808 79.2427 55.9449 97.566 0.0697899 -19.397" stroke="#28A8E0" stroke-miterlimit="10"/>
<path d="M495.379 293.135C494.516 291.98 405.276 294.557 342.887 209.975C299.461 151.103 342.331 26.2079 255.894 50.7102C165.922 76.5166 58.4513 93.4608 3.00189 -21.4282" stroke="#28A8E0" stroke-miterlimit="10"/>
<path d="M495.781 291.649C494.705 290.216 406.163 289.5 342.296 207.901C297.771 151.017 337.212 28.5704 252.891 50.6138C164.999 73.5874 60.9815 89.3449 5.95761 -23.4702" stroke="#28A8E0" stroke-miterlimit="10"/>
<path d="M496.171 290.163C494.882 288.442 407.026 284.433 341.681 205.827C296.045 150.921 332.128 31.0613 249.852 50.5177C164.089 70.8079 63.4643 85.2399 8.87787 -25.5227" stroke="#28A8E0" stroke-miterlimit="10"/>
<path d="M496.573 288.677C495.072 286.667 407.878 279.366 341.09 203.764C294.319 150.825 327.056 33.5627 246.849 50.4428C163.226 68.0498 65.9944 81.1454 11.8336 -27.5432" stroke="#28A8E0" stroke-miterlimit="10"/>
<path d="M496.963 287.202C495.237 284.903 408.705 274.309 340.475 201.701C292.569 150.729 321.96 36.0645 243.823 50.3574C162.327 65.2705 68.5008 77.0405 14.7657 -29.5742" stroke="#28A8E0" stroke-miterlimit="10"/>
<path d="M497.365 285.716C495.426 283.129 409.521 269.22 339.872 199.626C290.819 150.611 316.888 38.555 240.808 50.2716C161.453 62.5013 71.0073 72.9458 17.7096 -31.6057" stroke="#28A8E0" stroke-miterlimit="10"/>
<path d="M497.755 284.23C495.604 281.354 410.313 264.143 339.269 197.563C289.057 150.505 311.816 41.0462 237.793 50.1865C160.589 59.7223 73.5256 68.8411 20.6653 -33.6365" stroke="#28A8E0" stroke-miterlimit="10"/>
<path d="M498.157 282.744C495.793 279.58 411.093 259.054 338.666 195.489C287.272 150.387 306.756 43.537 234.778 50.1008C159.715 56.9427 76.0438 64.7359 23.6092 -35.6677" stroke="#28A8E0" stroke-miterlimit="10"/>
<path d="M498.547 281.258C495.97 277.805 411.838 253.965 338.063 193.415C285.475 150.259 301.684 46.0277 231.763 50.0045C158.852 54.1524 78.5503 60.62 26.5531 -37.7097" stroke="#28A8E0" stroke-miterlimit="10"/>
<path d="M498.949 279.783C496.147 276.052 412.571 248.898 337.46 191.352C283.666 150.152 296.636 48.5294 228.749 49.9298C157.988 51.3944 81.0686 56.5365 29.497 -39.7407" stroke="#28A8E0" stroke-miterlimit="10"/>
<path d="M499.34 278.297C496.325 274.277 413.281 243.821 336.845 189.289C281.833 150.034 291.564 51.0204 225.722 49.8445C157.125 48.6151 83.575 52.4315 32.4291 -41.7717" stroke="#28A8E0" stroke-miterlimit="10"/>
<path d="M499.742 276.811C496.514 272.502 413.966 238.742 336.254 187.215C280.001 149.916 286.527 53.5216 222.719 49.7586C156.298 45.8459 86.0933 48.3261 35.3848 -43.8032" stroke="#28A8E0" stroke-miterlimit="10"/>
<path d="M500.132 275.325C496.691 270.728 414.628 233.675 335.639 185.141C278.133 149.799 281.479 56.0126 219.692 49.6625C155.435 43.0666 88.5998 44.2211 38.3169 -45.845" stroke="#28A8E0" stroke-miterlimit="10"/>
<path d="M500.534 273.839C496.869 268.953 415.267 228.619 335.048 183.067C276.277 149.692 276.454 58.5033 216.689 49.5769C154.607 40.2977 91.1299 40.1159 41.2726 -47.8762" stroke="#28A8E0" stroke-miterlimit="10"/>
<path d="M500.924 272.364C497.046 267.189 415.882 223.584 334.434 181.015C274.373 149.617 271.406 61.0369 213.663 49.502C153.768 37.5502 93.6245 36.0215 44.2047 -49.8967" stroke="#28A8E0" stroke-miterlimit="10"/>
<path d="M501.326 270.878C497.235 265.415 416.485 218.559 333.842 178.941C272.482 149.532 266.393 63.5388 210.66 49.4169C152.952 34.7925 96.1546 31.9168 47.1604 -51.9382" stroke="#28A8E0" stroke-miterlimit="10"/>
<path d="M501.716 269.392C497.412 263.64 417.064 213.545 333.228 176.867C270.554 149.446 261.356 66.0509 207.633 49.3205C152.124 32.0342 98.6611 27.8115 50.0926 -53.9802" stroke="#28A8E0" stroke-miterlimit="10"/>
<path d="M502.118 267.905C497.602 261.876 417.643 208.553 332.625 174.803C268.627 149.392 256.343 68.584 204.618 49.2451C151.297 29.297 101.168 23.7166 53.0365 -56.0012" stroke="#28A8E0" stroke-miterlimit="10"/>
<path d="M502.508 266.42C497.767 260.102 418.187 203.582 332.022 172.73C266.688 149.339 251.318 71.1179 201.603 49.1493C150.481 26.5606 103.686 19.6012 55.9922 -58.0427" stroke="#28A8E0" stroke-miterlimit="10"/>
<path d="M502.91 264.934C497.956 258.327 418.731 198.621 331.419 170.656C264.749 149.296 246.294 73.6621 198.588 49.0529C149.653 23.8237 106.204 15.496 58.9361 -60.0847" stroke="#28A8E0" stroke-miterlimit="10"/>
<path d="M503.3 263.459C498.134 256.563 419.263 193.704 330.816 168.593C262.799 149.286 241.281 76.2173 195.573 48.9783C148.838 21.1193 108.711 11.4018 61.88 -62.105" stroke="#28A8E0" stroke-miterlimit="10"/>
<path d="M503.702 261.972C498.323 254.788 419.807 188.786 330.213 166.529C260.848 149.296 236.244 78.7826 192.559 48.8924C148.01 18.4143 111.229 7.29635 64.8239 -64.1365" stroke="#28A8E0" stroke-miterlimit="10"/>
<path d="M504.092 260.486C498.5 253.014 420.327 183.89 329.598 164.455C258.873 149.307 231.208 81.3484 189.532 48.807C147.159 15.7204 113.735 3.19138 67.756 -66.1782" stroke="#28A8E0" stroke-miterlimit="10"/>
<path d="M504.494 259.001C498.677 251.24 420.859 179.016 329.007 162.382C256.934 149.329 226.171 83.9145 186.529 48.7112C146.331 13.0161 116.254 -0.913363 70.7117 -68.2197" stroke="#28A8E0" stroke-miterlimit="10"/>
<path d="M504.885 257.515C498.855 249.465 421.379 174.162 328.392 160.307C254.96 149.371 221.111 86.4905 183.502 48.6253C145.468 10.3325 118.76 -5.01878 73.6438 -70.2512" stroke="#28A8E0" stroke-miterlimit="10"/>
<path d="M505.286 256.039C499.044 247.711 421.911 169.33 327.801 158.254C253.021 149.446 216.063 89.088 180.499 48.5502C144.617 7.65968 121.29 -9.11346 76.5995 -72.272" stroke="#28A8E0" stroke-miterlimit="10"/>
<path d="M505.677 254.553C499.221 245.937 422.443 164.508 327.186 156.181C251.058 149.521 210.991 91.6645 177.473 48.4648C143.742 4.97656 123.785 -13.2077 79.5316 -74.303" stroke="#28A8E0" stroke-miterlimit="10"/>
<path d="M506.079 253.067C499.411 244.162 422.999 159.709 326.583 154.107C249.119 149.606 205.907 94.2517 174.458 48.3687C142.855 2.2827 126.303 -17.3234 82.4755 -76.3447" stroke="#28A8E0" stroke-miterlimit="10"/>
<path d="M506.469 251.582C499.576 242.388 423.555 154.92 325.98 152.033C247.18 149.703 200.823 96.8284 171.431 48.2836C141.957 -0.400223 128.81 -21.4281 85.4076 -78.3862" stroke="#28A8E0" stroke-miterlimit="10"/>
<path d="M506.871 250.095C499.765 240.613 424.122 150.141 325.377 149.969C245.253 149.831 195.727 99.4149 168.416 48.1975C141.07 -3.08407 131.316 -25.5338 88.3515 -80.418" stroke="#28A8E0" stroke-miterlimit="10"/>
<path d="M507.261 248.62C499.943 238.849 424.69 145.394 324.774 147.907C243.338 149.959 190.631 101.992 165.401 48.1231C140.171 -5.76689 133.834 -29.617 91.2954 -82.438" stroke="#28A8E0" stroke-miterlimit="10"/>
<path d="M507.663 247.134C500.132 237.074 425.293 140.637 324.171 145.832C241.423 150.087 185.524 104.557 162.387 48.0265C139.261 -8.47194 136.353 -33.7332 94.2511 -84.4802" stroke="#28A8E0" stroke-miterlimit="10"/>
<path d="M508.053 245.648C500.309 235.3 425.884 135.891 323.568 143.769C239.531 150.237 180.417 107.134 159.372 47.9519C138.362 -11.155 138.859 -37.8274 97.195 -86.5005" stroke="#28A8E0" stroke-miterlimit="10"/>
<path d="M508.455 244.162C500.486 233.536 426.499 131.155 322.965 141.695C237.639 150.387 175.309 109.699 156.357 47.8555C137.44 -13.8705 141.377 -41.9326 100.139 -88.5425" stroke="#28A8E0" stroke-miterlimit="10"/>
<path d="M508.845 242.676C500.664 231.762 427.125 126.419 322.351 139.622C235.748 150.536 170.178 112.254 153.33 47.7702C136.518 -16.575 143.884 -46.0375 103.071 -90.5735" stroke="#28A8E0" stroke-miterlimit="10"/>
<path d="M509.247 241.19C500.853 229.987 427.764 121.694 321.759 137.547C233.88 150.697 165.082 114.809 150.327 47.6738C135.619 -19.2905 146.402 -50.1535 106.027 -92.6262" stroke="#28A8E0" stroke-miterlimit="10"/>
<path d="M509.637 239.715C501.03 228.223 428.414 116.979 321.145 135.495C232.012 150.878 159.951 117.375 147.301 47.6096C134.685 -21.9845 148.908 -54.2265 108.959 -94.636" stroke="#28A8E0" stroke-miterlimit="10"/>
<path d="M510.039 238.229C501.219 226.448 429.088 112.265 320.553 133.421C230.167 151.039 154.844 119.93 144.298 47.5135C133.775 -24.7104 151.439 -58.3422 111.915 -96.6777" stroke="#28A8E0" stroke-miterlimit="10"/>
<path d="M510.429 236.744C501.385 224.674 429.75 107.54 319.939 131.348C228.311 151.21 149.712 122.464 141.271 47.4177C132.853 -27.4467 153.933 -62.4576 114.847 -98.7192" stroke="#28A8E0" stroke-miterlimit="10"/>
<path d="M510.831 235.257C501.574 222.899 430.447 102.825 319.336 129.273C226.479 151.381 144.593 125.008 138.256 47.3316C131.931 -30.1627 156.451 -66.5633 117.79 -100.751" stroke="#28A8E0" stroke-miterlimit="10"/>
<path d="M511.222 233.771C501.751 221.125 431.133 98.1111 318.733 127.21C224.658 151.563 139.474 127.563 135.241 47.2465C131.009 -32.8883 158.97 -70.6573 120.734 -102.782" stroke="#28A8E0" stroke-miterlimit="10"/>
<path d="M511.624 232.296C501.941 219.372 431.843 93.4072 318.13 125.147C222.837 151.744 134.366 130.107 132.226 47.1715C130.098 -35.6037 161.476 -74.7518 123.678 -104.813" stroke="#28A8E0" stroke-miterlimit="10"/>
<path d="M512.014 230.81C502.118 217.597 432.564 88.6929 317.527 123.073C221.028 151.916 129.058 132.641 129.211 47.0754C128.987 -38.3404 163.994 -78.8674 126.622 -106.855" stroke="#28A8E0" stroke-miterlimit="10"/>
<path d="M512.416 229.324C502.295 215.822 433.285 83.9785 316.924 121.01C219.219 152.097 123.974 135.174 126.197 47.0006C128.112 -41.0664 166.513 -82.9512 129.578 -108.875" stroke="#28A8E0" stroke-miterlimit="10"/>
<path d="M512.806 227.838C502.473 214.048 434.018 79.2639 316.309 118.936C217.41 152.268 118.89 137.708 123.17 46.9042C127.225 -43.814 169.007 -87.0671 132.51 -110.917" stroke="#28A8E0" stroke-miterlimit="10"/>
<path d="M513.208 226.353C502.662 212.273 434.763 74.5391 315.718 116.862C215.637 152.44 113.83 140.242 120.167 46.8191C126.362 -46.5503 171.537 -91.1718 135.466 -112.948" stroke="#28A8E0" stroke-miterlimit="10"/>
<path d="M513.598 224.877C502.839 210.509 435.59 70.0059 315.103 114.798C213.899 152.77 108.734 142.775 117.14 46.733C125.464 -49.2769 174.044 -95.2774 138.398 -114.98" stroke="#28A8E0" stroke-miterlimit="10"/>
<path d="M514 223.391C503.017 208.735 436.276 65.1099 314.512 112.735C212.066 152.803 103.674 145.319 114.137 46.6584C124.601 -52.0028 176.562 -99.3609 141.354 -117" stroke="#28A8E0" stroke-miterlimit="10"/>
</g>
</svg>
